<?xml version="1.0" encoding="UTF-8" standalone="no"?>
<!DOCTYPE svg PUBLIC "-//W3C//DTD SVG 1.1//EN" "http://www.w3.org/Graphics/SVG/1.1/DTD/svg11.dtd">
<svg width="100%" height="100%" viewBox="0 0 16 16" version="1.1" xmlns="http://www.w3.org/2000/svg" xmlns:xlink="http://www.w3.org/1999/xlink" xml:space="preserve" xmlns:serif="http://www.serif.com/" style="fill-rule:evenodd;clip-rule:evenodd;stroke-linejoin:round;stroke-miterlimit:2;">
    <rect id="Un." x="0" y="0" width="16" height="16" style="fill:none;"/>
    <clipPath id="_clip1">
        <rect id="Un.1" serif:id="Un." x="0" y="0" width="16" height="16"/>
    </clipPath>
    <g clip-path="url(#_clip1)">
        <g transform="matrix(0.0679708,0,0,0.0679708,-787.155,-430.257)">
            <path d="M11932.9,6304.09L11932.9,6593.2C11932.9,6664.31 11875.2,6722.03 11804.1,6722.03L11546.4,6722.03C11475.3,6722.03 11417.6,6664.31 11417.6,6593.2L11417.6,6304.09C11417.6,6232.98 11475.3,6175.26 11546.4,6175.26L11804.1,6175.26C11875.2,6175.26 11932.9,6232.98 11932.9,6304.09Z" style="fill:rgb(228,217,160);"/>
        </g>
        <g transform="matrix(1.32795,0,0,1.23312,-2.7137,-1.87238)">
            <g>
                <path d="M7.001,5.001C7.006,4.94 7.008,5.468 7.008,6.584C7.008,9.734 6.6,11.359 5.784,11.458C5.641,11.475 5.468,11.447 5.265,11.375C5.062,11.303 4.863,11.231 4.668,11.16C4.499,11.115 4.329,11.067 4.157,11.015C3.985,10.962 3.85,10.878 3.753,10.762C3.542,10.513 3.373,9.972 3.245,9.137C3.132,8.369 3.075,7.518 3.075,6.584C3.075,5.866 3.111,5.233 3.183,4.686C3.204,4.515 3.278,4.404 3.406,4.355C3.463,4.333 3.659,4.371 3.995,4.471C4.331,4.57 4.527,4.656 4.584,4.728C4.609,4.761 4.622,4.805 4.622,4.86C4.622,4.932 4.597,5.03 4.545,5.155C4.494,5.279 4.471,5.377 4.476,5.449C4.45,5.554 4.438,5.858 4.438,6.361C4.438,7.333 4.479,8.214 4.561,9.005C4.663,10.021 4.812,10.519 5.007,10.497C5.253,10.469 5.438,9.985 5.561,9.046C5.659,8.322 5.708,7.468 5.708,6.485C5.708,5.838 5.69,5.432 5.654,5.266C5.664,5.172 5.654,5.081 5.623,4.993C5.577,4.871 5.554,4.805 5.554,4.794C5.523,4.606 5.579,4.465 5.723,4.371C5.749,4.355 5.792,4.346 5.854,4.346C6.008,4.346 6.223,4.388 6.5,4.471C6.777,4.554 6.939,4.623 6.985,4.678C7.016,4.717 7.021,4.824 7.001,5.001Z" style="fill-rule:nonzero;"/>
                <path d="M11.203,10.671C11.244,10.776 11.265,10.881 11.265,10.986C11.265,11.151 11.206,11.265 11.088,11.325C11.052,11.342 10.987,11.35 10.895,11.35C10.721,11.35 10.513,11.321 10.272,11.263C10.03,11.205 9.884,11.149 9.833,11.093C9.807,11.06 9.794,11.024 9.794,10.986C9.794,10.925 9.833,10.827 9.91,10.691C9.987,10.556 10.025,10.458 10.025,10.397C10.036,8.22 10.02,7.123 9.979,7.106C9.907,7.079 9.73,7.328 9.448,7.852C9.151,8.405 9.002,8.822 9.002,9.104L9.002,10.654C9.068,10.726 9.102,10.814 9.102,10.919C9.102,11.129 9.015,11.273 8.84,11.35C8.82,11.361 8.789,11.367 8.748,11.367C8.609,11.367 8.406,11.332 8.14,11.263C7.873,11.194 7.724,11.138 7.693,11.093C7.662,11.049 7.647,10.999 7.647,10.944C7.647,10.889 7.677,10.823 7.736,10.745C7.795,10.668 7.824,10.618 7.824,10.596L7.824,6.742C7.824,6.698 7.804,6.64 7.763,6.568C7.721,6.496 7.709,6.435 7.724,6.385C7.755,6.269 7.834,6.195 7.963,6.162C8.045,6.139 8.237,6.17 8.54,6.253C8.868,6.341 9.048,6.432 9.079,6.526C9.099,6.587 9.091,6.678 9.056,6.8C8.999,6.993 8.971,7.104 8.971,7.131C8.971,7.192 8.981,7.258 9.002,7.33C9.079,7.054 9.186,6.808 9.325,6.593C9.494,6.333 9.664,6.203 9.833,6.203C10.007,6.203 10.233,6.268 10.51,6.398C10.787,6.528 10.946,6.645 10.987,6.75C11.131,7.104 11.203,8.411 11.203,10.671Z" style="fill-rule:nonzero;"/>
                <path d="M13.289,10.281C13.299,10.342 13.268,10.447 13.196,10.596C13.114,10.762 13.073,10.894 13.073,10.994C13.078,11.038 13.078,11.102 13.073,11.184C13.053,11.345 13.012,11.439 12.95,11.466C12.878,11.499 12.709,11.45 12.442,11.317C12.175,11.184 12.027,11.082 11.996,11.01C11.97,10.961 12.006,10.806 12.103,10.546C12.186,10.325 12.257,10.159 12.319,10.049C12.35,9.994 12.406,9.966 12.488,9.966C12.458,9.966 12.611,9.999 12.95,10.066C13.155,10.104 13.268,10.176 13.289,10.281Z" style="fill-rule:nonzero;"/>
            </g>
        </g>
    </g>
</svg>
